<?xml version="1.0" encoding="UTF-8"?>
<svg xmlns="http://www.w3.org/2000/svg" xmlns:xlink="http://www.w3.org/1999/xlink" xmlns:inkscape="http://www.inkscape.org/namespaces/inkscape"
     width="1180" height="410" viewBox="0 0 1180 410">
  <title>AbrChin — Exact approved master with editable vector layers</title>
  <desc>Exact vector reconstruction of the approved AbrChin render. Components are separated into named layers.</desc>
  <g inkscape:groupmode="layer" inkscape:label="01 — Wordmark Vector" id="wordmark" style="display:inline">
    <path d="M 669.942 98.904 C 665.241 100.411, 663.196 101.947, 660.843 105.737 L 658.506 109.500 658.603 181.091 C 658.695 249.536, 658.783 252.824, 660.600 255.910 C 663.418 260.698, 668.469 263.429, 674.505 263.429 C 681.246 263.429, 685.870 260.698, 688.750 255.015 L 691 250.576 691 181 L 691 111.424 688.750 106.985 C 687.513 104.543, 685.148 101.771, 683.495 100.824 C 679.811 98.713, 673.380 97.802, 669.942 98.904 M 108.804 135.041 C 104.127 137.510, 100.515 142.256, 99.011 147.909 C 96.864 155.973, 100.242 164.819, 107.345 169.736 C 110.793 172.123, 112.302 172.498, 118.418 172.487 C 123.687 172.477, 126.349 171.965, 128.818 170.487 C 133.004 167.980, 137.646 161.057, 138.490 156.061 C 139.855 147.977, 135.220 138.684, 127.982 134.991 C 122.812 132.353, 113.848 132.376, 108.804 135.041 M 180.218 164.663 C 178.413 165.553, 175.938 167.680, 174.718 169.390 C 172.556 172.422, 172.486 173.395, 171.930 208 C 171.603 228.406, 170.918 244.780, 170.319 246.509 C 163.475 266.284, 148.372 277.367, 126.500 278.665 C 110.205 279.632, 96.643 275.193, 86.118 265.449 C 69.911 250.444, 66.524 226.387, 77.537 204.498 C 83.053 193.535, 81.799 187.929, 72.454 181.775 C 65.127 176.950, 62.161 176.393, 56.691 178.813 C 53.251 180.334, 51.620 181.941, 49.264 186.131 C 41.366 200.177, 37.783 214.220, 37.818 231 C 37.847 245.112, 40.111 254.715, 46.424 267.500 C 56.505 287.914, 74.306 302.503, 97.090 309.026 C 106.724 311.783, 128.149 312.823, 138.335 311.027 C 164.937 306.336, 185.525 292.163, 195.487 271.684 C 197.969 266.582, 200 261.921, 200 261.326 C 200 258.462, 202.723 257.964, 209.621 259.568 C 215.229 260.872, 220.933 261.091, 240.500 260.750 C 262.374 260.370, 265.060 260.131, 270.828 258.048 C 274.309 256.792, 279.186 254.214, 281.667 252.321 L 286.177 248.878 291.338 252.418 C 294.177 254.365, 299.200 256.973, 302.500 258.213 C 308.406 260.432, 309.328 260.472, 361.390 260.776 C 396.400 260.980, 416.029 260.721, 419.455 260.009 C 433.562 257.081, 445.606 247.693, 451.994 234.648 C 459.562 219.190, 459.557 204.798, 451.976 189.316 C 445.776 176.655, 435.167 168.291, 420.540 164.532 C 415.892 163.337, 408.516 163, 387.040 163.002 C 362.797 163.003, 359.090 163.212, 356.071 164.752 C 351.288 167.191, 348.801 171.015, 348.247 176.785 C 347.639 183.112, 349.962 188.191, 354.856 191.234 C 358.358 193.412, 359.590 193.519, 386.500 194 C 405.123 194.333, 415.170 194.890, 416.500 195.664 C 419.626 197.483, 423.767 202.221, 424.936 205.315 C 425.521 206.863, 426 209.872, 426 212 C 426 219.520, 422.510 224.875, 415.500 228.110 C 411.793 229.821, 408.054 229.958, 364.429 229.978 L 317.359 230 311.981 227.250 C 303.166 222.742, 302.599 220.871, 302 194.319 C 301.540 173.900, 301.335 171.914, 299.429 169.319 C 293.060 160.651, 277.901 161.121, 272.500 170.155 C 270.706 173.156, 270.449 175.813, 270 196 C 269.482 219.295, 269.254 220.565, 264.828 224.702 C 259.944 229.269, 256.204 230, 237.782 229.994 C 218.891 229.988, 214.663 229.270, 209.895 225.258 C 204.505 220.723, 204 218.194, 204 195.744 C 204 176.638, 203.866 175.162, 201.750 171.036 C 200.352 168.310, 198.180 165.957, 196.016 164.824 C 191.726 162.578, 184.595 162.506, 180.218 164.663 M 506 164.763 C 503.857 165.917, 501.628 168.349, 500.250 171.036 C 498.028 175.368, 498 175.924, 498 215.030 C 498 258.781, 497.789 260.620, 491.741 269.628 C 487.189 276.408, 480.111 279.887, 468.771 280.921 C 454.860 282.189, 449.533 286.971, 449.533 298.191 C 449.533 304.591, 451.365 307.922, 456.990 311.750 C 463.774 316.367, 483.642 313.855, 498.686 306.478 C 512.994 299.462, 523.703 284.917, 527.543 267.287 C 528.476 263.004, 529.556 259.152, 529.944 258.726 C 530.331 258.300, 533.462 258.672, 536.900 259.553 C 546.123 261.916, 588.926 262.014, 597.735 259.692 C 614.350 255.313, 626.155 244.603, 632.204 228.419 C 634.265 222.904, 634.419 220.792, 634.458 197.500 C 634.499 173.207, 634.437 172.412, 632.270 169.373 C 626.230 160.906, 611.770 160.906, 605.730 169.373 C 603.624 172.326, 603.472 173.749, 603 195 C 602.680 209.419, 602.082 218.218, 601.336 219.500 C 599.395 222.836, 594.712 226.805, 590.782 228.447 C 585.384 230.702, 547.623 230.704, 542.218 228.449 C 537.120 226.323, 532.178 221.301, 530.996 217.044 C 530.454 215.095, 530.008 204.725, 530.004 194 C 529.996 172.602, 529.368 169.745, 523.763 165.636 C 519.821 162.746, 510.588 162.292, 506 164.763 M 228.970 282.250 C 222.782 285.376, 220 289.877, 220 296.762 C 220 307, 226.670 314, 236.426 314 C 248.726 314, 257.084 302.317, 252.549 291.463 C 250.389 286.294, 248.306 284.087, 243.500 281.881 C 238.180 279.438, 234.343 279.535, 228.970 282.250 M 272.401 281.905 C 266.494 284.588, 263.650 289.083, 263.197 296.457 C 262.885 301.526, 263.201 303.049, 265.162 305.908 C 268.902 311.360, 272.309 313.327, 278.737 313.746 C 285.567 314.192, 290.282 312.081, 293.726 307.037 C 298.289 300.352, 297.893 292.225, 292.716 286.330 C 287.127 279.964, 280.064 278.426, 272.401 281.905 M 570.421 281.896 C 553.639 289.519, 558.872 314, 577.284 314 C 585.278 314, 591.909 309.004, 593.874 301.500 C 595.959 293.540, 592.524 286.105, 584.980 282.250 C 579.658 279.531, 575.834 279.438, 570.421 281.896 M 361.990 282.945 C 360.006 283.994, 357.455 286.625, 356.124 288.994 C 354.213 292.393, 353.853 294.216, 354.220 298.634 C 354.487 301.864, 355.475 305.186, 356.644 306.791 C 359.118 310.188, 366.445 314, 370.500 314 C 374.568 314, 381.884 310.185, 384.377 306.763 C 385.641 305.029, 386.518 301.917, 386.774 298.263 C 387.111 293.444, 386.790 291.931, 384.815 289.024 C 379.522 281.235, 370.011 278.702, 361.990 282.945 M 400.990 283.250 C 395.825 286.765, 393.714 290.320, 393.294 296.209 C 392.997 300.369, 393.407 302.355, 395.212 305.500 C 397.796 310.001, 404.518 314, 409.500 314 C 413.969 314, 421.134 310.026, 423.742 306.102 C 428.555 298.859, 426.016 288.623, 418.078 283.274 C 413.439 280.147, 405.565 280.136, 400.990 283.250 M 383.309 315.947 C 373.377 320.456, 372.114 335.666, 381.137 342.101 C 385.640 345.313, 394.534 345.485, 398.615 342.438 C 403.436 338.839, 405.222 335.590, 405.302 330.274 C 405.402 323.702, 402.701 319.132, 397.015 316.250 C 391.630 313.520, 388.792 313.458, 383.309 315.947" stroke="none" fill="#061F45" fill-rule="evenodd"/>
  </g>
  <g inkscape:groupmode="layer" inkscape:label="02 — Cloud and Growth Path Vector" id="cloud-growth" style="display:inline">
    <path d="M 935.585 44.039 C 907.235 48.498, 882.681 63.024, 865.943 85.236 C 858.380 95.274, 850.761 110.821, 847.682 122.500 L 845.309 131.500 833.860 132.130 C 786.910 134.713, 749.714 165.529, 737.926 211.606 C 734.597 224.619, 734.739 244.689, 738.254 258.011 C 747.870 294.456, 774.915 320.516, 811.500 328.589 C 821.191 330.727, 844.530 331.003, 853.500 329.084 C 864.738 326.681, 880.751 320.984, 891.137 315.696 C 905.038 308.616, 914.158 302.629, 935.277 286.719 C 964.210 264.921, 975.193 259.686, 992 259.682 C 1001.808 259.680, 1001.072 259.503, 1022.725 267.084 C 1028.186 268.996, 1029.337 269.103, 1032.098 267.959 C 1040.500 264.479, 1038.773 251.875, 1027.900 237.309 C 1022.653 230.281, 1013.158 223.718, 1003.464 220.419 C 988.030 215.167, 968.492 217.368, 949.445 226.504 C 940.257 230.911, 928.328 238.803, 908.080 253.870 C 888.461 268.470, 876.872 275.776, 865.149 280.934 C 833.729 294.761, 803.615 289.135, 787.398 266.409 C 774.927 248.932, 773.581 226.280, 783.839 206.500 C 789.199 196.163, 799.433 186.292, 810.101 181.167 C 824.131 174.427, 839.880 172.394, 854 175.500 C 866.787 178.313, 874.314 176.982, 880.728 170.775 C 885.004 166.636, 886.727 160.703, 887.341 148 C 888.195 130.353, 894.707 116.117, 907.323 104.314 C 919.515 92.910, 933.250 87.592, 950.500 87.598 C 959.684 87.601, 962.785 88.031, 969.284 90.205 C 989.627 97.010, 1005.599 114.383, 1011.028 135.609 C 1012.447 141.158, 1013.006 146.711, 1013.022 155.410 C 1013.047 169.088, 1014.289 173.160, 1020.128 178.699 C 1025.110 183.427, 1029.775 185, 1038.808 185 C 1059.328 185, 1078.175 194.885, 1088.827 211.234 C 1103.046 233.059, 1100.285 258.182, 1081.760 275.543 C 1073.180 283.583, 1072.082 285.254, 1072.035 290.349 C 1071.989 295.357, 1073.946 299.330, 1079.700 305.907 C 1086.479 313.657, 1092.878 315.749, 1100.307 312.645 C 1105.103 310.641, 1117.223 299.801, 1122.601 292.705 C 1129.516 283.581, 1135.822 269.623, 1138.195 258.190 C 1140.764 245.814, 1140.257 227.652, 1137.005 215.500 C 1132.353 198.116, 1122.221 181.106, 1109.224 168.856 C 1096.899 157.240, 1081.329 148.732, 1064.709 144.531 L 1055.531 142.211 1053.866 132.355 C 1051.808 120.174, 1048.834 110.623, 1044.258 101.500 C 1026.739 66.576, 992.496 44.684, 953.500 43.479 C 946.900 43.275, 938.838 43.527, 935.585 44.039" stroke="none" fill="#1D72F3" fill-rule="evenodd"/>
  </g>
  <g inkscape:groupmode="layer" inkscape:label="03 — Cheh Dots Vector" id="cheh-dots" style="display:inline">
    <path d="M 985.366 291.919 C 975.472 297.952, 973.019 311.396, 980.299 319.688 C 986.854 327.154, 996.579 328.780, 1004.153 323.676 C 1015.968 315.714, 1015.290 297.855, 1002.931 291.464 C 998.800 289.328, 989.207 289.576, 985.366 291.919 M 1031.748 292.014 C 1021.233 297.719, 1019.270 312.505, 1027.882 321.118 C 1036.628 329.863, 1051.523 327.736, 1057.023 316.956 C 1061.183 308.801, 1058.858 298.558, 1051.552 292.847 C 1047.368 289.577, 1037.040 289.143, 1031.748 292.014 M 1009.960 332.303 C 998.138 338.554, 998.163 357.379, 1010.002 363.501 C 1014.379 365.764, 1022.747 365.396, 1027.425 362.734 C 1034.965 358.443, 1038.070 347.976, 1034.106 340.210 C 1029.300 330.793, 1019.119 327.459, 1009.960 332.303" stroke="none" fill="#F96754" fill-rule="evenodd"/>
  </g>
</svg>
